<svg xmlns="http://www.w3.org/2000/svg" viewBox="0 0 400 220" width="400" height="220">
  <defs>
    <linearGradient id="bg5" x1="0" y1="0" x2="0" y2="1">
      <stop offset="0%" stop-color="#0a0015"/>
      <stop offset="100%" stop-color="#12003a"/>
    </linearGradient>
    <radialGradient id="glow5" cx="50%" cy="80%" r="50%">
      <stop offset="0%" stop-color="#7c3aed" stop-opacity="0.4"/>
      <stop offset="100%" stop-color="#0a0015" stop-opacity="0"/>
    </radialGradient>
  </defs>
  <rect width="400" height="220" fill="url(#bg5)" rx="10"/>
  <rect width="400" height="220" fill="url(#glow5)" rx="10"/>

  <!-- Stars -->
  <circle cx="20" cy="15" r="1" fill="white" opacity="0.8"/>
  <circle cx="55" cy="40" r="1.5" fill="white" opacity="0.6"/>
  <circle cx="90" cy="10" r="1" fill="white" opacity="0.9"/>
  <circle cx="140" cy="30" r="1" fill="white" opacity="0.7"/>
  <circle cx="200" cy="8" r="1.5" fill="white" opacity="0.8"/>
  <circle cx="260" cy="22" r="1" fill="white" opacity="0.6"/>
  <circle cx="310" cy="12" r="1" fill="white" opacity="0.9"/>
  <circle cx="350" cy="35" r="1.5" fill="white" opacity="0.7"/>
  <circle cx="380" cy="18" r="1" fill="white" opacity="0.8"/>
  <circle cx="75" cy="65" r="1" fill="white" opacity="0.5"/>
  <circle cx="320" cy="55" r="1" fill="white" opacity="0.6"/>
  <circle cx="170" cy="50" r="1" fill="white" opacity="0.7"/>

  <!-- Enemy row 1 (top) - alien bugs -->
  <!-- 6 enemies -->
  <g transform="translate(28,18)">
    <ellipse cx="18" cy="14" rx="14" ry="10" fill="#f43f5e"/>
    <circle cx="12" cy="12" r="3" fill="#fff" opacity="0.8"/>
    <circle cx="24" cy="12" r="3" fill="#fff" opacity="0.8"/>
    <circle cx="12" cy="12" r="1.5" fill="#0f172a"/>
    <circle cx="24" cy="12" r="1.5" fill="#0f172a"/>
    <path d="M8 20 Q18 26 28 20" stroke="#f43f5e" stroke-width="1.5" fill="none"/>
    <line x1="6" y1="8" x2="2" y2="4" stroke="#f43f5e" stroke-width="1.5"/>
    <line x1="30" y1="8" x2="34" y2="4" stroke="#f43f5e" stroke-width="1.5"/>
  </g>
  <g transform="translate(84,18)">
    <ellipse cx="18" cy="14" rx="14" ry="10" fill="#f43f5e"/>
    <circle cx="12" cy="12" r="3" fill="#fff" opacity="0.8"/>
    <circle cx="24" cy="12" r="3" fill="#fff" opacity="0.8"/>
    <circle cx="12" cy="12" r="1.5" fill="#0f172a"/>
    <circle cx="24" cy="12" r="1.5" fill="#0f172a"/>
    <line x1="6" y1="8" x2="2" y2="4" stroke="#f43f5e" stroke-width="1.5"/>
    <line x1="30" y1="8" x2="34" y2="4" stroke="#f43f5e" stroke-width="1.5"/>
  </g>
  <g transform="translate(140,18)">
    <ellipse cx="18" cy="14" rx="14" ry="10" fill="#ec4899"/>
    <circle cx="12" cy="12" r="3" fill="#fff" opacity="0.8"/>
    <circle cx="24" cy="12" r="3" fill="#fff" opacity="0.8"/>
    <circle cx="12" cy="12" r="1.5" fill="#0f172a"/>
    <circle cx="24" cy="12" r="1.5" fill="#0f172a"/>
    <line x1="6" y1="8" x2="2" y2="4" stroke="#ec4899" stroke-width="1.5"/>
    <line x1="30" y1="8" x2="34" y2="4" stroke="#ec4899" stroke-width="1.5"/>
  </g>
  <g transform="translate(196,18)">
    <ellipse cx="18" cy="14" rx="14" ry="10" fill="#ec4899"/>
    <circle cx="12" cy="12" r="3" fill="#fff" opacity="0.8"/>
    <circle cx="24" cy="12" r="3" fill="#fff" opacity="0.8"/>
    <circle cx="12" cy="12" r="1.5" fill="#0f172a"/>
    <circle cx="24" cy="12" r="1.5" fill="#0f172a"/>
    <line x1="6" y1="8" x2="2" y2="4" stroke="#ec4899" stroke-width="1.5"/>
    <line x1="30" y1="8" x2="34" y2="4" stroke="#ec4899" stroke-width="1.5"/>
  </g>
  <g transform="translate(252,18)">
    <ellipse cx="18" cy="14" rx="14" ry="10" fill="#f43f5e"/>
    <circle cx="12" cy="12" r="3" fill="#fff" opacity="0.8"/>
    <circle cx="24" cy="12" r="3" fill="#fff" opacity="0.8"/>
    <circle cx="12" cy="12" r="1.5" fill="#0f172a"/>
    <circle cx="24" cy="12" r="1.5" fill="#0f172a"/>
    <line x1="6" y1="8" x2="2" y2="4" stroke="#f43f5e" stroke-width="1.5"/>
    <line x1="30" y1="8" x2="34" y2="4" stroke="#f43f5e" stroke-width="1.5"/>
  </g>
  <g transform="translate(308,18)">
    <ellipse cx="18" cy="14" rx="14" ry="10" fill="#f43f5e"/>
    <circle cx="12" cy="12" r="3" fill="#fff" opacity="0.8"/>
    <circle cx="24" cy="12" r="3" fill="#fff" opacity="0.8"/>
    <circle cx="12" cy="12" r="1.5" fill="#0f172a"/>
    <circle cx="24" cy="12" r="1.5" fill="#0f172a"/>
    <line x1="6" y1="8" x2="2" y2="4" stroke="#f43f5e" stroke-width="1.5"/>
    <line x1="30" y1="8" x2="34" y2="4" stroke="#f43f5e" stroke-width="1.5"/>
  </g>

  <!-- Enemy row 2 -->
  <g transform="translate(56,55)">
    <ellipse cx="18" cy="14" rx="14" ry="10" fill="#a855f7"/>
    <circle cx="12" cy="12" r="3" fill="#fff" opacity="0.6"/>
    <circle cx="24" cy="12" r="3" fill="#fff" opacity="0.6"/>
    <circle cx="12" cy="12" r="1.5" fill="#0f172a"/>
    <circle cx="24" cy="12" r="1.5" fill="#0f172a"/>
  </g>
  <g transform="translate(112,55)">
    <ellipse cx="18" cy="14" rx="14" ry="10" fill="#a855f7"/>
    <circle cx="12" cy="12" r="3" fill="#fff" opacity="0.6"/>
    <circle cx="24" cy="12" r="3" fill="#fff" opacity="0.6"/>
    <circle cx="12" cy="12" r="1.5" fill="#0f172a"/>
    <circle cx="24" cy="12" r="1.5" fill="#0f172a"/>
  </g>
  <g transform="translate(168,55)">
    <ellipse cx="18" cy="14" rx="14" ry="10" fill="#8b5cf6"/>
    <circle cx="12" cy="12" r="3" fill="#fff" opacity="0.6"/>
    <circle cx="24" cy="12" r="3" fill="#fff" opacity="0.6"/>
    <circle cx="12" cy="12" r="1.5" fill="#0f172a"/>
    <circle cx="24" cy="12" r="1.5" fill="#0f172a"/>
  </g>
  <g transform="translate(224,55)">
    <ellipse cx="18" cy="14" rx="14" ry="10" fill="#8b5cf6"/>
    <circle cx="12" cy="12" r="3" fill="#fff" opacity="0.6"/>
    <circle cx="24" cy="12" r="3" fill="#fff" opacity="0.6"/>
    <circle cx="12" cy="12" r="1.5" fill="#0f172a"/>
    <circle cx="24" cy="12" r="1.5" fill="#0f172a"/>
  </g>
  <g transform="translate(280,55)">
    <ellipse cx="18" cy="14" rx="14" ry="10" fill="#a855f7"/>
    <circle cx="12" cy="12" r="3" fill="#fff" opacity="0.6"/>
    <circle cx="24" cy="12" r="3" fill="#fff" opacity="0.6"/>
    <circle cx="12" cy="12" r="1.5" fill="#0f172a"/>
    <circle cx="24" cy="12" r="1.5" fill="#0f172a"/>
  </g>

  <!-- Explosion effect on one enemy -->
  <circle cx="336" cy="62" r="18" fill="#fbbf24" opacity="0.25"/>
  <circle cx="336" cy="62" r="10" fill="#fbbf24" opacity="0.5"/>
  <text x="322" y="68" font-size="16" fill="#fbbf24">💥</text>

  <!-- Heart bullets going up -->
  <text x="193" y="155" font-size="14" fill="#f9a8d4">♥</text>
  <text x="193" y="135" font-size="12" fill="#f472b6" opacity="0.7">♥</text>
  <text x="193" y="115" font-size="10" fill="#ec4899" opacity="0.4">♥</text>
  <text x="193" y="98" font-size="8" fill="#ec4899" opacity="0.2">♥</text>

  <text x="240" y="148" font-size="12" fill="#f9a8d4" opacity="0.8">♥</text>
  <text x="240" y="130" font-size="10" fill="#f472b6" opacity="0.5">♥</text>

  <!-- Player character (Powerpuff Girl - Blossom style) -->
  <!-- Body -->
  <ellipse cx="200" cy="196" rx="18" ry="14" fill="#f43f5e"/>
  <!-- Head -->
  <circle cx="200" cy="178" r="16" fill="#fde68a"/>
  <!-- Hair bow -->
  <path d="M188 166 Q200 158 212 166 Q200 172 188 166Z" fill="#f43f5e"/>
  <circle cx="200" cy="167" r="3" fill="#f43f5e"/>
  <!-- Eyes (big Powerpuff style) -->
  <circle cx="194" cy="179" r="5" fill="#111827"/>
  <circle cx="206" cy="179" r="5" fill="#111827"/>
  <circle cx="195" cy="177" r="2" fill="white"/>
  <circle cx="207" cy="177" r="2" fill="white"/>
  <!-- Smile -->
  <path d="M195 186 Q200 190 205 186" stroke="#333" stroke-width="1.5" fill="none" stroke-linecap="round"/>

  <!-- Score -->
  <rect x="0" y="195" width="120" height="25" rx="5" fill="black" opacity="0.5"/>
  <text x="10" y="212" font-family="monospace" font-size="11" fill="#f9a8d4">STAGE 2  SCORE: 7800</text>

  <!-- Lives -->
  <text x="320" y="212" font-size="12" fill="#f43f5e">♥ ♥ ♥</text>
</svg>
